<svg xmlns="http://www.w3.org/2000/svg" viewBox="0 13.800000190734863 37.349998474121094 35" data-asc="0.976"><g fill="#ffffff"><g fill="#ffffff" transform="translate(0, 0)"><path d="M11.30 13.80L33.80 48.75L26.55 48.75L4.15 13.80L11.30 13.80M9.60 45.20Q9.15 45.90 9.35 46.63Q9.55 47.35 10.13 47.82Q10.70 48.30 11.35 48.30Q11.35 48.30 11.68 48.30Q12 48.30 12 48.30L12 48.80L0 48.80L0 48.30L0.70 48.30Q2.30 48.30 3.60 47.40Q4.90 46.50 5.75 45.35L9.60 45.20M16.05 30.55L18.05 32.50L7.25 48.75L3.35 48.75L16.05 30.55M24.30 45.20L31.60 45.40Q32.40 46.55 33.75 47.42Q35.10 48.30 36.65 48.30L37.35 48.30L37.35 48.80L21.95 48.80L21.95 48.30Q21.95 48.30 22.25 48.30Q22.55 48.30 22.55 48.30Q23.60 48.30 24.28 47.30Q24.95 46.30 24.30 45.20M15.95 13.80L15.95 14.30Q15.95 14.30 15.65 14.30Q15.35 14.30 15.35 14.30Q14.70 14.30 14.13 14.77Q13.55 15.25 13.38 15.97Q13.20 16.70 13.60 17.40L6.35 17.25Q5.55 16.10 4.23 15.20Q2.90 14.30 1.30 14.30L0.60 14.30L0.60 13.80L15.95 13.80M32.60 13.80L20.60 31.55L18.70 29.50L28.70 13.80L32.60 13.80M36.00 13.80L36.00 14.30L35.30 14.30Q33.75 14.30 32.43 15.20Q31.10 16.10 30.25 17.25L26.40 17.40Q26.85 16.70 26.65 15.97Q26.45 15.25 25.90 14.77Q25.35 14.30 24.65 14.30Q24.65 14.30 24.35 14.30Q24.05 14.30 24.05 14.30L24.05 13.80L36.00 13.80Z"/></g></g></svg>